<svg xmlns="http://www.w3.org/2000/svg" width="18" height="17" viewBox="0 0 18 17">
  <g id="多角形_2" data-name="多角形 2" fill="#fff">
    <path d="M 14.00056076049805 16.22926139831543 L 9.189689636230469 14.25658988952637 L 9 14.17881011962891 L 8.810310363769531 14.25658988952637 L 3.999430179595947 16.22926139831543 L 4.401669979095459 11.08086013793945 L 4.417840003967285 10.87386035919189 L 4.28262996673584 10.71630001068115 L 0.9124698042869568 6.788963794708252 L 5.966489791870117 5.578149795532227 L 6.166830062866211 5.530149936676025 L 6.275209903717041 5.354959964752197 L 9 0.9503931999206543 L 11.7247896194458 5.354959964752197 L 11.83316993713379 5.530149936676025 L 12.03351020812988 5.578149795532227 L 17.0875301361084 6.788963794708252 L 13.71737003326416 10.71630001068115 L 13.58215999603271 10.87386035919189 L 13.59832954406738 11.08086013793945 L 14.00056076049805 16.22926139831543 Z" stroke="none"/>
    <path d="M 9 1.900786399841309 L 6.700420379638672 5.618009567260742 L 6.483659744262695 5.968400001525879 L 6.082980155944824 6.064390182495117 L 1.824947357177734 7.084505081176758 L 4.662079811096191 10.39068984985352 L 4.932499885559082 10.705810546875 L 4.900150299072266 11.11980056762695 L 4.561169624328613 15.45851802825928 L 8.620610237121582 13.79397010803223 L 9 13.6384105682373 L 9.379389762878418 13.79397010803223 L 13.43882274627686 15.45851802825928 L 13.09984970092773 11.11980056762695 L 13.06750011444092 10.705810546875 L 13.33792018890381 10.39068984985352 L 16.17505264282227 7.084505081176758 L 11.91701984405518 6.064390182495117 L 11.5163402557373 5.968400001525879 L 11.29957962036133 5.618009567260742 L 9 1.900786399841309 M 9 0 L 12.14999961853027 5.091910362243652 L 18 6.493419647216797 L 14.09681034088135 11.04191017150879 L 14.56229972839355 17 L 9 14.71920967102051 L 3.437689781188965 17 L 3.903189659118652 11.04191017150879 L 0 6.493419647216797 L 5.850000381469727 5.091910362243652 L 9 0 Z" stroke="none" fill="#707070"/>
  </g>
</svg>
