<svg xmlns="http://www.w3.org/2000/svg" width="20.889" height="20.215" viewBox="0 0 20.889 20.215">
  <path id="パス_44" data-name="パス 44" d="M11.895-10.342h3.135a26.684,26.684,0,0,0,4.5-.4Q17.8-8.672,16.274-8.672L15.029-8.7,13.608-8.73,12.48-8.76h-.762L11.6-7.69,11.455-6.4a6.793,6.793,0,0,1-.9,3A6.355,6.355,0,0,1,8.042-1.6l4.058.22L10.342.322,3.4,0l1.89-1.816,1.582.176q1.787-1.128,2.2-4.614L9.229-7.69l1.157-10.43h-.5a7.515,7.515,0,0,0-4.46,1.165A3.716,3.716,0,0,0,3.809-13.77a5.308,5.308,0,0,0,.674,2.49L2.109-8.994a7.853,7.853,0,0,1-.337-2.227,7.888,7.888,0,0,1,3.413-6.636Q7.676-19.7,12.261-19.7h4.849q2.725,0,5.552-.19l-1.172,3-.234.542q-.366.864-.937.864a1.777,1.777,0,0,1-.22-.015,5.469,5.469,0,0,0,.176-1.172,1.159,1.159,0,0,0-1.025-1.208,30.7,30.7,0,0,0-5.083-.242H12.759Z" transform="translate(-1.772 19.893)"/>
</svg>
