<svg xmlns="http://www.w3.org/2000/svg" width="12.03" height="21.84" viewBox="0 0 12.03 21.84">
  <path id="パス_39" data-name="パス 39" d="M2.97-1.11a.809.809,0,0,0,.87.84.931.931,0,0,0,.99-.84v-1.2c0-2.19-.03-6.42-.03-8.25,0-.48.06-.48,3.6-.48,1.53,0,3.18,0,3.96.06h.06a.928.928,0,0,0,.96-.96.856.856,0,0,0-.99-.87c-.69.03-2.91.06-4.71.06-2.79,0-2.85,0-2.85-.48.03-1.77,0-4.5.06-5.25a1.846,1.846,0,0,1,1.98-1.86c.51-.03,1.59-.06,2.76-.06,1.8,0,3.81.03,4.38.06h.03a.855.855,0,0,0,.96-.84.875.875,0,0,0-.9-.87c-.51-.03-2.1-.06-3.72-.06s-3.24.03-3.78.06c-2.19.12-3.45,1.32-3.51,3.3C3-15.57,3.03-4.77,2.97-1.14Z" transform="translate(-2.97 22.11)"/>
</svg>
