<svg xmlns="http://www.w3.org/2000/svg" width="11.057" height="25.11" viewBox="0 0 11.057 25.11">
  <path id="パス_43" data-name="パス 43" d="M12.48-22.02a1.439,1.439,0,0,1-1.17,1.65q-.06.03-2.25.18a.624.624,0,0,0-.24.03q-1.83.87-2.7,1.2a40.867,40.867,0,0,0-.06,7.14q.39-.27,1.2-.81.72-.84,1.2-.81a3.309,3.309,0,0,1,1.995.975,2.606,2.606,0,0,1,1.005,1.9,1.479,1.479,0,0,1-.18.72q-.33.66-1.65.72a3.593,3.593,0,0,0-2.01.48,2.157,2.157,0,0,0-.8.525q-.375.375-.705.735a32.514,32.514,0,0,0,0,5.64,2.086,2.086,0,0,1,.15.75A1.654,1.654,0,0,1,5.22.51a1.935,1.935,0,0,1-.93.21A3.011,3.011,0,0,1,2.52.15,2.347,2.347,0,0,1,1.44-1.38a.735.735,0,0,1,.135-.63A4.941,4.941,0,0,1,1.98-2.4q-.18-13.08,0-19.32-.03-.3-.03-.54,0-1.56,1.89-1.56a4.759,4.759,0,0,1,.72.06,2.518,2.518,0,0,1,.9.24,3.523,3.523,0,0,1,.42.42q.6-.21,1.92-.66.3-.18.645-.4A2.058,2.058,0,0,1,9.54-24.39a3.269,3.269,0,0,1,1.89.75A2.168,2.168,0,0,1,12.48-22.02Z" transform="translate(-1.426 24.39)"/>
</svg>
