<svg xmlns="http://www.w3.org/2000/svg" width="22.839" height="23.37" viewBox="0 0 22.839 23.37">
  <path id="パス_24" data-name="パス 24" d="M121.754,139.967l-2.578,9.254h2.867a5.289,5.289,0,0,0,2.891-.636,6.932,6.932,0,0,0,1.968-2.726h.614l-2.269,8.515H124.6a7.729,7.729,0,0,0,.242-1.7,2.07,2.07,0,0,0-.649-1.63,3.784,3.784,0,0,0-2.439-.577h-2.9l-1.9,7.046a12.326,12.326,0,0,0-.515,2.5,1.181,1.181,0,0,0,.443.982,4.745,4.745,0,0,0,2.166.463l-.194.64h-8.628l.21-.64a4.751,4.751,0,0,0,1.675-.24,2.1,2.1,0,0,0,.95-.793,12.954,12.954,0,0,0,1.029-2.914l3.845-14.077a10.793,10.793,0,0,0,.467-2.671,1.339,1.339,0,0,0-.21-.766,1.206,1.206,0,0,0-.618-.475,5.551,5.551,0,0,0-1.635-.157l.194-.636h16.931l-1.608,5.911h-.614a11.11,11.11,0,0,0,.178-1.76,2.615,2.615,0,0,0-.586-1.8,3.189,3.189,0,0,0-1.5-.939,14.556,14.556,0,0,0-2.883-.173Z" transform="translate(-110.228 -138.726)" fill="#1a1311"/>
</svg>
