<svg xmlns="http://www.w3.org/2000/svg" width="16.509" height="19.644" viewBox="0 0 16.509 19.644">
  <path id="パス_42" data-name="パス 42" d="M18.516-15.146a.9.9,0,0,1-.1.308q-.051.073-.476.527l-.513.513a.8.8,0,0,1-.483.293H16.89l-.923-.146-1.113.059-.4-.205-.659.059-1.406-.117-.483-.029-.4.059-.264-.308-.337.1-.586.322-.454.088-.542-.059-.864-.176H8.438q-.015,0-.044.029l-.835.146L6.328-13.8l-.806.117-.366.059a3.54,3.54,0,0,1-.146.879,5.816,5.816,0,0,0-.088,1.04v.483l.088,1.143.029.776a1.052,1.052,0,0,1-.029.278L4.644-7.705l.073.176q.352.1.352.293l-.146.4-.029.264.176.073.059.117-.234.542.117.5-.059.63.234.967.029,1.6.029.864A.561.561,0,0,1,5.1-.937,3.218,3.218,0,0,1,4.556-.6l-.264.146L4.263-.542a1.168,1.168,0,0,0-.63.249l-.22.205a.186.186,0,0,1-.088.044q-.059.015-.176.037L2.944.029,2.607.088,2.549-.6a.987.987,0,0,1,.088-.483.992.992,0,0,1,.308-.293L2.915-1.6a1.415,1.415,0,0,1,.117-.381l-.278-.454.1-.293L3.062-5.3l.117-.308-.146-.542L3.3-7.046v-.425l-.146-.088v-.146l-.088-.088.059-.366-.088-.454v-.352a.434.434,0,0,1,.146-.308l-.029-.776L2.915-10.2l.059-2.051a.539.539,0,0,0,.176-.439v-.22a1.014,1.014,0,0,1-.315-.388,1.884,1.884,0,0,1-.081-.652l.029-.454a1.243,1.243,0,0,0,.278-.659l-.029-.308-.308.1-.059-.366.161-.6a2.39,2.39,0,0,0,.088-.659.878.878,0,0,0-.117-.52.729.729,0,0,0-.425-.227l.059-.63-.425-.19q0-.381.19-.469l.894-.249,1.172-.381,1.406.059a4.426,4.426,0,0,1,1.055.176,2.512,2.512,0,0,0,.747.234H7.5l.63-.146.425.19.542.029.806.146.542-.059H12.6l3.3-.483h.425a1,1,0,0,1-.293.659,2.15,2.15,0,0,1-1.538.864h-.176l-3.428.029-.6-.146-1.67-.029-.308-.146a2.247,2.247,0,0,0-.542-.059l-.088.088L7.617-18l-.381-.029-1.479-.117A1.941,1.941,0,0,0,5.068-18l.205.146-.234.161.059.63q-.293.249-.293.381a1.6,1.6,0,0,0,.205.571l.146.337L5.01-15l.4.029.088.146.176-.059.425.117.894.059.513.278.176-.117.059-.161.571.1,1.626-.029a8.988,8.988,0,0,1,1.494.176l.278-.176h.205l3.208-.073.688.132.938-.337.542-.029.923-.234Z" transform="translate(-2.007 19.556)"/>
</svg>
