<svg xmlns="http://www.w3.org/2000/svg" width="44" height="44" viewBox="0 0 44 44">
  <g id="グループ_39" data-name="グループ 39" transform="translate(-92 -594)">
    <circle id="楕円形_37" data-name="楕円形 37" cx="22" cy="22" r="22" transform="translate(92 594)" fill="#fff"/>
    <g id="イメージ画像のアイコン素材_その3" data-name="イメージ画像のアイコン素材 その3" transform="translate(101.68 605.44)">
      <path id="パス_33" data-name="パス 33" d="M102.346,243.707a6.016,6.016,0,0,0-3.238-1.046,6.826,6.826,0,0,0-2.974.748,6.7,6.7,0,0,1-2.91.735,4.044,4.044,0,0,1-2.793-1.438,4.222,4.222,0,0,0-2.9-1.479h-.079v7.327h16.771v-4.163h-.079A3.7,3.7,0,0,1,102.346,243.707Z" transform="translate(-83.102 -231.6)" fill="#639cbf"/>
      <path id="パス_34" data-name="パス 34" d="M242.95,128.9a2.708,2.708,0,0,0,2.657-2.193l.047-.244-.179.172a1.785,1.785,0,0,1-1.242.5,1.8,1.8,0,0,1-.739-3.443l.226-.1-.243-.049a2.706,2.706,0,1,0-.527,5.36Z" transform="translate(-228.292 -119.721)" fill="#639cbf"/>
      <path id="パス_35" data-name="パス 35" d="M0,47.7V68.428H25.472V47.7ZM2.531,65.9V50.233h20.41V65.9Z" transform="translate(0 -47.702)" fill="#639cbf"/>
    </g>
  </g>
</svg>
