<svg xmlns="http://www.w3.org/2000/svg" width="106" height="107" viewBox="0 0 106 107">
  <g id="グループ_43" data-name="グループ 43" transform="translate(-226 -377)">
    <ellipse id="楕円形_38" data-name="楕円形 38" cx="53" cy="53.5" rx="53" ry="53.5" transform="translate(226 377)" fill="#fff"/>
    <g id="設定の歯車アイコン_その2" data-name="設定の歯車アイコン　その2" transform="translate(253.999 405.999)">
      <path id="パス_31" data-name="パス 31" d="M49.056,30.01,45.246,27a2.52,2.52,0,0,1-.944-1.987V24.99A2.519,2.519,0,0,1,45.246,23l3.809-3.008a2.484,2.484,0,0,0,.756-2.9l-1.673-4.04a2.484,2.484,0,0,0-2.585-1.517l-4.821.566a2.52,2.52,0,0,1-2.076-.741l-.017-.017A2.52,2.52,0,0,1,37.9,9.269l.566-4.821a2.484,2.484,0,0,0-1.517-2.585L32.911.19a2.485,2.485,0,0,0-2.9.755L27,4.754a2.52,2.52,0,0,1-1.987.944H24.99A2.519,2.519,0,0,1,23,4.755L19.99.945A2.485,2.485,0,0,0,17.09.19L13.05,1.863a2.485,2.485,0,0,0-1.517,2.585L12.1,9.269a2.519,2.519,0,0,1-.741,2.076l-.017.017a2.519,2.519,0,0,1-2.073.737l-4.821-.566A2.484,2.484,0,0,0,1.863,13.05L.19,17.09a2.485,2.485,0,0,0,.755,2.9L4.755,23A2.52,2.52,0,0,1,5.7,24.986v.025A2.519,2.519,0,0,1,4.755,27L.945,30.01a2.484,2.484,0,0,0-.755,2.9l1.673,4.04a2.485,2.485,0,0,0,2.585,1.517L9.269,37.9a2.519,2.519,0,0,1,2.076.741l.017.017a2.52,2.52,0,0,1,.737,2.073l-.566,4.821a2.484,2.484,0,0,0,1.517,2.585l4.04,1.673a2.485,2.485,0,0,0,2.9-.755L23,45.246a2.52,2.52,0,0,1,1.987-.944h.025A2.519,2.519,0,0,1,27,45.246l3.008,3.809a2.484,2.484,0,0,0,2.9.755l4.04-1.673a2.485,2.485,0,0,0,1.517-2.585L37.9,40.732a2.519,2.519,0,0,1,.741-2.076l.017-.017a2.52,2.52,0,0,1,2.073-.737l4.821.566a2.484,2.484,0,0,0,2.585-1.517l1.673-4.04A2.485,2.485,0,0,0,49.056,30.01ZM27.47,32.2a7.594,7.594,0,1,1,4.11-9.922A7.594,7.594,0,0,1,27.47,32.2Z" transform="translate(0 0)" fill="#639cbf"/>
    </g>
  </g>
</svg>
