<svg xmlns="http://www.w3.org/2000/svg" width="78" height="78" viewBox="0 0 78 78">
  <g id="グループ_43" data-name="グループ 43" transform="translate(-150 -560)">
    <path id="パス_10" data-name="パス 10" d="M-432.5,651.436s1.99-9.276,4.238-9.183,23.522,0,23.522,0a7.067,7.067,0,0,1,1.224,2.234c.126.837,2.189,6.949,2.189,6.949" transform="translate(605.772 -64.455)" fill="#639cbf"/>
    <g id="グループ_37" data-name="グループ 37" transform="translate(-123 1)">
      <text id="_2020.08.22" data-name="2020.08.22" transform="translate(280 612)" fill="#707070" font-size="12" font-family="YuGo-Medium, YuGothic" font-weight="500" letter-spacing="-0.045em"><tspan x="0" y="0">2020.08.22</tspan></text>
      <circle id="楕円形_29" data-name="楕円形 29" cx="39" cy="39" r="39" transform="translate(273 559)" fill="#fff"/>
      <rect id="長方形_13" data-name="長方形 13" width="41.394" height="32.614" rx="3" transform="translate(291 584.668)" fill="#639cbf"/>
      <path id="パス_10-2" data-name="パス 10" d="M-432.5,649.841s1.645-7.665,3.5-7.589,19.437,0,19.437,0a5.84,5.84,0,0,1,1.012,1.846c.1.692,1.809,5.742,1.809,5.742" transform="translate(731.504 -64.252)" fill="#639cbf"/>
      <ellipse id="楕円形_10" data-name="楕円形 10" cx="7.781" cy="7.408" rx="7.781" ry="7.408" transform="translate(304 593.685)" fill="#f2f2f2"/>
      <circle id="楕円形_11" data-name="楕円形 11" cx="1.882" cy="1.882" r="1.882" transform="translate(322.105 589.431)" fill="#f2f2f2"/>
    </g>
  </g>
</svg>
