<svg xmlns="http://www.w3.org/2000/svg" width="106" height="107" viewBox="0 0 106 107">
  <g id="グループ_43" data-name="グループ 43" transform="translate(-43 -376)">
    <ellipse id="楕円形_35" data-name="楕円形 35" cx="53" cy="53.5" rx="53" ry="53.5" transform="translate(43 376)" fill="#fff"/>
    <g id="Free_Clock_icon_part_2無料の時計のアイコン_2" data-name="Free Clock icon part 2無料の時計のアイコン 2" transform="translate(70.631 404.262)">
      <path id="パス_29" data-name="パス 29" d="M25.369,0A25.369,25.369,0,1,0,50.738,25.369,25.4,25.4,0,0,0,25.369,0Zm0,44.7A19.329,19.329,0,1,1,44.7,25.369,19.35,19.35,0,0,1,25.369,44.7Z" fill="#639cbf"/>
      <path id="パス_30" data-name="パス 30" d="M164.706,115.758a2.3,2.3,0,0,0-2.3,2.3v10.406L155.07,135.8a2.3,2.3,0,0,0,3.251,3.251L167,130.367v-12.31A2.3,2.3,0,0,0,164.706,115.758Z" transform="translate(-139.096 -104.287)" fill="#639cbf"/>
    </g>
  </g>
</svg>
